<svg width="34" height="34" viewBox="0 0 34 34" fill="none" xmlns="http://www.w3.org/2000/svg">
<path d="M5.57886 5.2651C5.57886 5.2651 6.39108 4.45289 8.01551 2.82846C9.63994 1.20403 12.7523 0.391811 17.3527 0.391811C21.9531 0.391811 25.8778 2.01624 29.1266 5.2651C32.3755 8.51397 33.9999 12.4256 33.9999 17C33.9999 21.5744 32.3755 25.486 29.1266 28.7349C25.8778 31.9838 21.9531 33.6082 17.3527 33.6082C12.7523 33.6082 8.82772 31.9838 5.57886 28.7349C2.33 25.486 0.705566 21.5744 0.705566 17C0.705566 12.4256 2.33 8.51397 5.57886 5.2651ZM7.95703 26.4347C7.95703 26.4347 8.6068 27.0845 9.90635 28.384C11.2059 29.6836 13.688 30.3333 17.3527 30.3333C21.0175 30.3333 24.1494 29.0338 26.7485 26.4347C29.3475 23.8356 30.6471 20.6907 30.6471 17C30.6471 13.3093 29.3475 10.1644 26.7485 7.5653C24.1494 4.96621 21.0175 3.66666 17.3527 3.66666C13.688 3.66666 10.5561 4.96621 7.95703 7.5653C5.35794 10.1644 4.05839 13.3093 4.05839 17C4.05839 20.6907 5.35794 23.8356 7.95703 26.4347ZM18.1715 8.65692V17.3899L25.6568 21.8343L24.4093 23.9396L15.6763 18.6374V8.65692H18.1715Z" fill="#906231"/>
</svg>
