<svg width="24" height="25" viewBox="0 0 24 25" fill="none" xmlns="http://www.w3.org/2000/svg">
<path d="M2.34594 11.6501C2.12458 10.9866 2 10.3202 2 9.66046C2 3.74952 7.50016 1.06266 12 5.89879C16.4998 1.06266 22 3.74933 22 9.66042C22 10.3202 21.8754 10.9866 21.6541 11.6501H18.6361L18.5241 11.65C17.9784 11.6491 17.4937 11.6483 17.0527 11.8447C16.6116 12.0411 16.2879 12.402 15.9233 12.8084L15.8485 12.8918L14.8192 14.0354C14.7426 14.1205 14.68 14.19 14.6247 14.2493C14.5723 14.1879 14.5128 14.1159 14.4401 14.0277L10.8889 9.7232C10.7493 9.55393 10.6 9.37283 10.454 9.23842C10.2839 9.0819 10.0325 8.90583 9.68096 8.88472C9.32945 8.86361 9.05875 9.00831 8.87115 9.14335C8.71006 9.25932 8.54016 9.42125 8.38136 9.5726L6.85172 11.0294C6.37995 11.4787 6.28151 11.5553 6.17854 11.5964C6.07557 11.6376 5.9515 11.6501 5.3 11.6501H2.34594Z" fill="#456E67"/>
<path d="M3.00439 13.1501C4.38537 15.712 6.93027 18.1142 8.96171 19.7707C10.2937 20.8569 10.9597 21.4 12 21.4C13.0403 21.4 13.7063 20.8569 15.0383 19.7707C17.0697 18.1142 19.6146 15.712 20.9956 13.1501H18.6361C17.9119 13.1501 17.7746 13.1652 17.6629 13.215C17.5513 13.2647 17.4481 13.3567 16.9634 13.8952L15.9086 15.0672C15.7507 15.2428 15.5839 15.4283 15.4235 15.5628C15.2384 15.718 14.9627 15.8921 14.5896 15.8841C14.2166 15.876 13.9488 15.6904 13.7704 15.5274C13.616 15.3862 13.4574 15.1938 13.3074 15.0118L9.75486 10.7057C9.68733 10.6239 9.63238 10.5573 9.58389 10.5005C9.52895 10.5511 9.46643 10.6106 9.3896 10.6838L7.81344 12.185C7.45748 12.525 7.14163 12.8267 6.73561 12.9892C6.32959 13.1516 5.8928 13.1509 5.40052 13.1502L3.00439 13.1501Z" fill="#456E67"/>
</svg>
