<svg width="28" height="29" viewBox="0 0 28 29" fill="none" xmlns="http://www.w3.org/2000/svg">
<path d="M19.8571 16.9107V14.2321C19.8571 14.1019 19.8153 13.995 19.7316 13.9113C19.6479 13.8276 19.5409 13.7857 19.4107 13.7857H16.2857V10.6607C16.2857 10.5305 16.2439 10.4235 16.1602 10.3398C16.0765 10.2561 15.9695 10.2143 15.8393 10.2143H13.1607C13.0305 10.2143 12.9235 10.2561 12.8398 10.3398C12.7561 10.4235 12.7143 10.5305 12.7143 10.6607V13.7857H9.58929C9.45908 13.7857 9.35212 13.8276 9.26841 13.9113C9.18471 13.995 9.14286 14.1019 9.14286 14.2321V16.9107C9.14286 17.0409 9.18471 17.1479 9.26841 17.2316C9.35212 17.3153 9.45908 17.3571 9.58929 17.3571H12.7143V20.4821C12.7143 20.6124 12.7561 20.7193 12.8398 20.803C12.9235 20.8867 13.0305 20.9286 13.1607 20.9286H15.8393C15.9695 20.9286 16.0765 20.8867 16.1602 20.803C16.2439 20.7193 16.2857 20.6124 16.2857 20.4821V17.3571H19.4107C19.5409 17.3571 19.6479 17.3153 19.7316 17.2316C19.8153 17.1479 19.8571 17.0409 19.8571 16.9107ZM10.9286 6.64286H18.0714V4.85714H10.9286V6.64286ZM5.57143 6.64286V24.5H5.125C4.26935 24.5 3.5346 24.1931 2.92076 23.5792C2.30692 22.9654 2 22.2307 2 21.375V9.76786C2 8.9122 2.30692 8.17746 2.92076 7.56362C3.5346 6.94978 4.26935 6.64286 5.125 6.64286H5.57143ZM22.0893 6.64286V24.5H6.91071V6.64286H9.14286V4.41072C9.14286 4.03869 9.27307 3.72247 9.53348 3.46205C9.7939 3.20164 10.1101 3.07143 10.4821 3.07143H18.5179C18.8899 3.07143 19.2061 3.20164 19.4665 3.46205C19.7269 3.72247 19.8571 4.03869 19.8571 4.41072V6.64286H22.0893ZM27 9.76786V21.375C27 22.2307 26.6931 22.9654 26.0792 23.5792C25.4654 24.1931 24.7307 24.5 23.875 24.5H23.4286V6.64286H23.875C24.7307 6.64286 25.4654 6.94978 26.0792 7.56362C26.6931 8.17746 27 8.9122 27 9.76786Z" fill="#906231"/>
</svg>
