<svg width="28" height="29" viewBox="0 0 28 29" fill="none" xmlns="http://www.w3.org/2000/svg">
<path d="M14.7441 25L3.75781 14.7949C3.46484 14.4368 3.21257 14.0706 3.00098 13.6963C2.78939 13.3219 2.61035 12.9313 2.46387 12.5244C2.31738 12.1175 2.20345 11.6943 2.12207 11.2549C2.04069 10.8154 2 10.3841 2 9.96094C2 8.95182 2.19531 7.99154 2.58594 7.08008C2.97656 6.16862 3.50553 5.37923 4.17285 4.71191C4.84017 4.0446 5.62956 3.51562 6.54102 3.125C7.45247 2.73438 8.41276 2.53906 9.42188 2.53906C9.91016 2.53906 10.3822 2.57975 10.8379 2.66113C11.2936 2.74251 11.7331 2.87272 12.1562 3.05176C12.5794 3.23079 12.9945 3.44238 13.4014 3.68652C13.8083 3.93066 14.1745 4.21549 14.5 4.54102C14.8255 4.21549 15.1917 3.93066 15.5986 3.68652C16.0055 3.44238 16.4206 3.23079 16.8438 3.05176C17.2669 2.87272 17.7064 2.74251 18.1621 2.66113C18.6178 2.57975 19.0898 2.53906 19.5781 2.53906C20.5872 2.53906 21.5475 2.73438 22.459 3.125C23.3704 3.51562 24.1598 4.0446 24.8271 4.71191C25.4945 5.37923 26.0234 6.16862 26.4141 7.08008C26.8047 7.99154 27 8.95182 27 9.96094C27 10.3841 26.9593 10.8154 26.8779 11.2549C26.7965 11.6943 26.6826 12.1175 26.5361 12.5244C26.3896 12.9313 26.2106 13.3219 25.999 13.6963C25.7874 14.0706 25.5352 14.4368 25.2422 14.7949L25.1934 14.8438L16.5996 22.6562L15.5254 21.4844L24.0703 13.7207C24.2982 13.4603 24.4935 13.1836 24.6562 12.8906C24.819 12.5977 24.9574 12.2884 25.0713 11.9629C25.1852 11.6374 25.2747 11.3037 25.3398 10.9619C25.4049 10.6201 25.4375 10.2865 25.4375 9.96094C25.4375 9.14714 25.2829 8.38216 24.9736 7.66602C24.6644 6.94987 24.2493 6.33138 23.7285 5.81055C23.2077 5.28971 22.5892 4.87467 21.873 4.56543C21.1569 4.25619 20.3919 4.10156 19.5781 4.10156C19.1549 4.10156 18.7318 4.15039 18.3086 4.24805C17.8854 4.3457 17.4867 4.47591 17.1123 4.63867C16.738 4.80143 16.3799 5.01302 16.0381 5.27344C15.6963 5.53385 15.3789 5.82682 15.0859 6.15234L14.5 6.88477L13.9141 6.15234C13.6211 5.82682 13.3037 5.53385 12.9619 5.27344C12.6201 5.01302 12.262 4.80143 11.8877 4.63867C11.5133 4.47591 11.1146 4.3457 10.6914 4.24805C10.2682 4.15039 9.84505 4.10156 9.42188 4.10156C8.60807 4.10156 7.8431 4.25619 7.12695 4.56543C6.41081 4.87467 5.79232 5.28971 5.27148 5.81055C4.75065 6.33138 4.33561 6.94987 4.02637 7.66602C3.71712 8.38216 3.5625 9.14714 3.5625 9.96094C3.5625 10.2865 3.59505 10.6201 3.66016 10.9619C3.72526 11.3037 3.81478 11.6374 3.92871 11.9629C4.04264 12.2884 4.18099 12.5977 4.34375 12.8906C4.50651 13.1836 4.70182 13.4603 4.92969 13.7207L15.8184 23.8281L14.7441 25ZM13.8652 19.9219L6.00391 12.5977C5.8737 12.4023 5.75163 12.1989 5.6377 11.9873C5.52376 11.7757 5.42611 11.5641 5.34473 11.3525C5.26335 11.141 5.20638 10.9131 5.17383 10.6689C5.14128 10.4248 5.125 10.1888 5.125 9.96094C5.125 9.375 5.23893 8.82162 5.4668 8.30078C5.69466 7.77995 6.00391 7.32422 6.39453 6.93359C6.78516 6.54297 7.24089 6.23372 7.76172 6.00586C8.28255 5.77799 8.83594 5.66406 9.42188 5.66406V7.22656C9.03125 7.22656 8.67318 7.2998 8.34766 7.44629C8.02214 7.59277 7.7373 7.78809 7.49316 8.03223C7.24902 8.27637 7.05371 8.5612 6.90723 8.88672C6.76074 9.21224 6.6875 9.57031 6.6875 9.96094C6.6875 10.0911 6.69564 10.2295 6.71191 10.376C6.72819 10.5225 6.76074 10.6689 6.80957 10.8154C6.8584 10.9619 6.91536 11.1003 6.98047 11.2305C7.04557 11.3607 7.12695 11.4909 7.22461 11.6211L14.9395 18.75L13.8652 19.9219ZM17.1855 8.78906L15.8184 8.05664C15.9486 7.79622 16.1032 7.56022 16.2822 7.34863C16.4613 7.13704 16.6647 6.94173 16.8926 6.7627C17.1204 6.58366 17.3564 6.42904 17.6006 6.29883C17.8447 6.16862 18.1133 6.07096 18.4062 6.00586C18.6667 5.9082 18.9352 5.85124 19.2119 5.83496C19.4886 5.81869 19.7653 5.82682 20.042 5.85938C20.3187 5.89193 20.5954 5.94889 20.8721 6.03027C21.1488 6.11165 21.4173 6.21745 21.6777 6.34766L20.8965 7.71484C20.7337 7.61719 20.571 7.54395 20.4082 7.49512C20.2454 7.44629 20.0745 7.41374 19.8955 7.39746C19.7165 7.38119 19.5374 7.38119 19.3584 7.39746C19.1794 7.41374 19.0085 7.43815 18.8457 7.4707C18.6504 7.53581 18.4714 7.60905 18.3086 7.69043C18.1458 7.77181 17.9993 7.86947 17.8691 7.9834C17.7389 8.09733 17.6169 8.2194 17.5029 8.34961C17.389 8.47982 17.2832 8.6263 17.1855 8.78906Z" fill="#906231"/>
</svg>
