<svg width="28" height="29" viewBox="0 0 28 29" fill="none" xmlns="http://www.w3.org/2000/svg">
<path d="M23.5592 17.3878C23.2615 18.1319 22.9081 18.7736 22.4989 19.3131C22.0897 19.8525 21.6665 20.264 21.2294 20.5477C20.7922 20.8314 20.3318 21.0476 19.8482 21.1964C19.3646 21.3452 18.8926 21.4127 18.4322 21.3987C17.9718 21.3848 17.5231 21.3452 17.0859 21.2801C16.6488 21.215 16.2466 21.1127 15.8792 20.9732C15.5118 20.8337 15.1886 20.7058 14.9096 20.5896C14.6306 20.4733 14.4167 20.3687 14.2679 20.2757L14.0307 20.1362C12.9797 22.2567 11.6335 23.9285 9.99191 25.1515C8.35035 26.3745 6.56231 26.9907 4.62779 27C4.45108 27 4.30227 26.9395 4.18136 26.8186C4.06045 26.6977 4 26.5489 4 26.3722C4 26.1955 4.06045 26.049 4.18136 25.9328C4.30227 25.8165 4.45108 25.7584 4.62779 25.7584C6.23679 25.7491 7.73651 25.2492 9.12695 24.2586C10.5174 23.2681 11.6869 21.8986 12.6356 20.1501C12.3008 20.2803 11.966 20.3873 11.6311 20.471C11.2963 20.5547 10.9103 20.6151 10.4732 20.6523C10.0361 20.6895 9.61291 20.6779 9.20368 20.6175C8.79446 20.557 8.36198 20.4245 7.90625 20.2199C7.45052 20.0153 7.02269 19.7409 6.62277 19.3968C6.22284 19.0526 5.82989 18.5876 5.44392 18.0017C5.05794 17.4157 4.7115 16.7368 4.40458 15.9648C5.46484 15.5277 6.46001 15.2626 7.39007 15.1696C8.32013 15.0766 9.09905 15.1115 9.72684 15.2743C10.3546 15.437 10.9336 15.6998 11.4637 16.0625C11.9939 16.4252 12.4054 16.7833 12.6984 17.1367C12.9914 17.4901 13.2541 17.8715 13.4866 18.2807C13.9795 17.0623 14.3469 15.7091 14.5887 14.221C14.5236 14.2303 14.4399 14.2419 14.3376 14.2559C14.2353 14.2698 14.0191 14.2814 13.6889 14.2907C13.3587 14.3 13.0355 14.2977 12.7193 14.2838C12.4031 14.2698 12.0241 14.2233 11.5823 14.1443C11.1405 14.0652 10.729 13.9582 10.3477 13.8234C9.96633 13.6885 9.57571 13.4909 9.17578 13.2305C8.77586 12.9701 8.42708 12.6678 8.12946 12.3237C7.83185 11.9795 7.5784 11.5401 7.36914 11.0053C7.15988 10.4705 7.02734 9.8776 6.97154 9.22656C7.62258 8.96615 8.2434 8.79641 8.83398 8.71736C9.42457 8.6383 9.94773 8.64295 10.4035 8.73131C10.8592 8.81966 11.287 8.95917 11.6869 9.14983C12.0869 9.34049 12.4287 9.57301 12.7123 9.84738C12.996 10.1217 13.2564 10.4054 13.4936 10.6984C13.7307 10.9914 13.9261 11.2843 14.0795 11.5773C14.233 11.8703 14.3609 12.1307 14.4632 12.3585C14.5655 12.5864 14.6399 12.7701 14.6864 12.9096L14.7422 13.1328C14.8538 11.9981 14.9096 11.0913 14.9096 10.4124C14.8352 10.3566 14.7352 10.2822 14.6097 10.1892C14.4841 10.0962 14.2562 9.88923 13.9261 9.56836C13.5959 9.24749 13.3006 8.91499 13.0402 8.57087C12.7798 8.22675 12.5286 7.79427 12.2868 7.27344C12.045 6.7526 11.8916 6.22945 11.8265 5.70396C11.7613 5.17848 11.8171 4.58789 11.9939 3.9322C12.1706 3.27651 12.4961 2.63244 12.9704 2C13.6494 2.23252 14.2423 2.51851 14.7492 2.85798C15.256 3.19745 15.649 3.5532 15.928 3.92522C16.207 4.29725 16.4302 4.69252 16.5977 5.11105C16.7651 5.52958 16.8604 5.94345 16.8836 6.35268C16.9069 6.76191 16.9046 7.15951 16.8767 7.54548C16.8488 7.93146 16.7883 8.2872 16.6953 8.61272C16.6023 8.93824 16.514 9.22656 16.4302 9.47768C16.3465 9.72879 16.2675 9.92411 16.1931 10.0636L16.0954 10.2729C16.1047 10.3101 16.1094 10.5426 16.1094 10.9704C16.1094 11.3983 16.1047 11.7331 16.0954 11.9749C16.1233 11.9098 16.1698 11.8238 16.2349 11.7168C16.3 11.6098 16.4419 11.4099 16.6604 11.1169C16.879 10.8239 17.1138 10.5542 17.365 10.3078C17.6161 10.0613 17.9462 9.8032 18.3555 9.53348C18.7647 9.26377 19.1902 9.05683 19.632 8.91267C20.0738 8.76851 20.5946 8.70108 21.1945 8.71038C21.7944 8.71968 22.4105 8.83129 23.043 9.0452C23.0244 9.77065 22.9244 10.4287 22.743 11.0193C22.5617 11.6098 22.3291 12.0958 22.0455 12.4771C21.7618 12.8584 21.4386 13.1909 21.0759 13.4746C20.7132 13.7583 20.3342 13.9699 19.9389 14.1094C19.5436 14.2489 19.1507 14.3605 18.76 14.4442C18.3694 14.5279 17.9974 14.5721 17.644 14.5767C17.2905 14.5814 16.9767 14.5767 16.7023 14.5628C16.4279 14.5488 16.2117 14.5279 16.0536 14.5L15.8164 14.4581C15.6025 15.8253 15.263 17.1414 14.798 18.4062C14.8538 18.3411 14.9375 18.2551 15.0491 18.1482C15.1607 18.0412 15.3909 17.8505 15.7397 17.5762C16.0884 17.3018 16.4488 17.0577 16.8209 16.8438C17.1929 16.6298 17.6556 16.4345 18.209 16.2578C18.7624 16.0811 19.3088 15.9881 19.8482 15.9788C20.3876 15.9695 20.9875 16.0788 21.6479 16.3066C22.3082 16.5345 22.9453 16.8949 23.5592 17.3878Z" fill="#906231"/>
</svg>
