<svg width="28" height="29" viewBox="0 0 28 29" fill="none" xmlns="http://www.w3.org/2000/svg">
<path d="M13.1562 27.5C11.7565 27.5 10.4382 27.2314 9.20117 26.6943C7.96419 26.1572 6.88997 25.4329 5.97852 24.5215C5.06706 23.61 4.34277 22.5358 3.80566 21.2988C3.26855 20.0618 3 18.7435 3 17.3438C3 16.3021 3.14648 15.3092 3.43945 14.3652C3.73242 13.4212 4.1556 12.5423 4.70898 11.7285C5.26237 10.9147 5.92155 10.1823 6.68652 9.53125C7.4515 8.88021 8.30599 8.35938 9.25 7.96875L9.83594 9.38477C9.05469 9.74284 8.33854 10.1904 7.6875 10.7275C7.03646 11.2646 6.47493 11.8831 6.00293 12.583C5.53092 13.2829 5.17285 14.0316 4.92871 14.8291C4.68457 15.6266 4.5625 16.4648 4.5625 17.3438C4.5625 18.5156 4.79036 19.6224 5.24609 20.6641C5.70182 21.7057 6.32031 22.6172 7.10156 23.3984C7.88281 24.1797 8.79427 24.7982 9.83594 25.2539C10.8776 25.7096 11.9844 25.9375 13.1562 25.9375C14.263 25.9375 15.3128 25.734 16.3057 25.3271C17.2985 24.9202 18.1855 24.3587 18.9668 23.6426C19.748 22.9264 20.3828 22.0964 20.8711 21.1523C21.3594 20.2083 21.6361 19.1829 21.7012 18.0762L23.2637 18.1738C23.166 19.4759 22.8324 20.6966 22.2627 21.8359C21.693 22.9753 20.9525 23.96 20.041 24.79C19.1296 25.6201 18.0798 26.2793 16.8916 26.7676C15.7035 27.2559 14.4583 27.5 13.1562 27.5ZM21.7012 16.6113C21.6361 15.8301 21.4652 15.0651 21.1885 14.3164C20.9118 13.5677 20.5456 12.8841 20.0898 12.2656C19.6341 11.6471 19.1051 11.0938 18.5029 10.6055C17.9007 10.1172 17.2253 9.71029 16.4766 9.38477L17.0625 7.96875C17.9414 8.32682 18.7471 8.79883 19.4795 9.38477C20.2119 9.9707 20.8467 10.6299 21.3838 11.3623C21.9209 12.0947 22.3522 12.9004 22.6777 13.7793C23.0033 14.6582 23.1986 15.5697 23.2637 16.5137L21.7012 16.6113ZM15.5 9.53125H13.9375V5.625H16.2812V4.0625H10.0312V5.625H12.375V9.53125H10.8125V7.1875H8.46875V2.5H17.8438V7.1875H15.5V9.53125ZM22.7754 5.86914L23.8496 6.94336L21.5059 9.28711L20.4316 8.21289L22.7754 5.86914ZM22.7754 4.74609L24.9727 6.94336L23.8496 8.06641L21.6523 5.86914L22.7754 4.74609ZM19.4062 18.125H12.375V11.0938H13.9375V16.5625H19.4062V18.125Z" fill="#906231"/>
</svg>
