<svg width="24" height="34" viewBox="0 0 24 34" fill="none" xmlns="http://www.w3.org/2000/svg">
<path d="M3.56711 3.78362C3.56711 3.78362 4.13241 3.21832 5.26301 2.08772C6.39362 0.957111 8.57036 0.391811 11.7932 0.391811C15.0161 0.391811 17.7711 1.52242 20.0583 3.78362C22.3455 6.04483 23.4891 8.78687 23.4891 12.0097C23.4891 13.6212 23.0863 15.4795 22.2806 17.5848C21.4748 19.6901 20.5002 21.6394 19.3566 23.4327C18.213 25.2261 17.0694 26.9155 15.9258 28.501C14.7822 30.0864 13.8205 31.347 13.0408 32.2826L11.7932 33.6082C11.4813 33.2963 11.0655 32.8285 10.5457 32.2047C10.0258 31.5809 9.10317 30.3723 7.77763 28.5789C6.4521 26.7856 5.26951 25.0442 4.22987 23.3548C3.19024 21.6654 2.25457 19.755 1.42286 17.6238C0.591147 15.4925 0.175293 13.6212 0.175293 12.0097C0.175293 8.78687 1.3059 6.04483 3.56711 3.78362ZM8.86925 14.9337C8.86925 14.9337 9.07068 15.1352 9.47354 15.538C9.8764 15.9409 10.6496 16.1423 11.7932 16.1423C12.9368 16.1423 13.9245 15.7394 14.7562 14.9337C15.5879 14.128 16.0038 13.1533 16.0038 12.0097C16.0038 10.8661 15.5879 9.89149 14.7562 9.08577C13.9245 8.28005 12.9368 7.87719 11.7932 7.87719C10.6496 7.87719 9.67497 8.28005 8.86925 9.08577C8.06353 9.89149 7.66067 10.8661 7.66067 12.0097C7.66067 13.1533 8.06353 14.128 8.86925 14.9337Z" fill="#906231"/>
</svg>
