<svg width="34" height="38" viewBox="0 0 34 38" fill="none" xmlns="http://www.w3.org/2000/svg">
<path d="M30.5867 11.8265C32.666 13.8538 33.7056 16.245 33.7056 19C33.7056 21.755 32.666 24.0942 30.5867 26.0175L28.9493 24.3021C30.4568 22.7427 31.2105 20.9233 31.2105 18.8441C31.2105 16.7648 30.4568 14.9974 28.9493 13.5419L30.5867 11.8265ZM27.078 15.3353C28.1176 16.4269 28.6374 17.6485 28.6374 19C28.6374 20.3515 28.1176 21.5211 27.078 22.5088L25.4405 20.7934C26.3762 19.5458 26.3762 18.2723 25.4405 16.9727L27.078 15.3353ZM20.4503 0.676411C21.3859 0.676411 22.1787 1.0013 22.8284 1.65107C23.4782 2.30084 23.8031 3.09357 23.8031 4.02924V33.9708C23.8031 34.9064 23.4782 35.6992 22.8284 36.3489C22.1787 36.9987 21.3859 37.3236 20.4503 37.3236H3.84208C2.90641 37.3236 2.11369 36.9987 1.46392 36.3489C0.814144 35.6992 0.489258 34.9064 0.489258 33.9708V4.02924C0.489258 3.09357 0.814144 2.30084 1.46392 1.65107C2.11369 1.0013 2.90641 0.676411 3.84208 0.676411H20.4503ZM20.4503 32.3333V5.66667H3.84208V32.3333H20.4503Z" fill="#906231"/>
</svg>
