<svg width="52" height="52" viewBox="0 0 52 52" fill="none" xmlns="http://www.w3.org/2000/svg">
<path d="M26.1631 0.799988C22.6444 0.799988 19.3711 1.45461 16.3434 2.76384C13.3156 4.07306 10.6561 5.87326 8.36481 8.16441C6.07354 10.4556 4.27325 13.1149 2.96395 16.1425C1.65465 19.1701 1 22.4432 1 25.9618C1 29.4803 1.65465 32.7534 2.96395 35.781C4.27325 38.8086 6.07354 41.468 8.36481 43.7591C10.6561 46.0503 13.3156 47.8505 16.3434 49.1597C19.3711 50.4689 22.6444 51.1235 26.1631 51.1235C29.6 51.1235 32.8528 50.4689 35.9215 49.1597C38.9901 47.8505 41.6701 46.0503 43.9614 43.7591C46.2527 41.468 48.0529 38.8086 49.3622 35.781C50.6715 32.7534 51.3262 29.4803 51.3262 25.9618C51.3262 22.4432 50.6715 19.1701 49.3622 16.1425C48.0529 13.1149 46.2527 10.4556 43.9614 8.16441C41.6701 5.87326 38.9901 4.07306 35.9215 2.76384C32.8528 1.45461 29.6 0.799988 26.1631 0.799988ZM26.1631 49.0369C22.9717 49.0369 19.9848 48.4232 17.2026 47.1958C14.4203 45.9684 11.9654 44.3319 9.83777 42.2862C7.79199 40.1587 6.15537 37.7039 4.9279 34.9218C3.70043 32.1397 3.0867 29.153 3.0867 25.9618C3.0867 22.7705 3.70043 19.7838 4.9279 17.0017C6.15537 14.2196 7.79199 11.7648 9.83777 9.63729C11.9654 7.59162 14.4203 5.95508 17.2026 4.72768C19.9848 3.50027 22.9717 2.88657 26.1631 2.88657C29.3545 2.88657 32.3414 3.50027 35.1236 4.72768C37.9059 5.95508 40.3199 7.59162 42.3657 9.63729C44.4933 11.7648 46.1708 14.2196 47.3983 17.0017C48.6258 19.7838 49.2395 22.7705 49.2395 25.9618C49.2395 29.153 48.6258 32.1397 47.3983 34.9218C46.1708 37.7039 44.4933 40.1587 42.3657 42.2862C40.3199 44.3319 37.9059 45.9684 35.1236 47.1958C32.3414 48.4232 29.3545 49.0369 26.1631 49.0369ZM39.1743 31.976C38.9288 31.8124 38.6833 31.7715 38.4378 31.8533C38.1923 31.9351 37.9877 32.0988 37.824 32.3443C37.2512 33.4898 36.5557 34.5127 35.7374 35.4128C34.919 36.3129 34.0189 37.0493 33.0369 37.6221C31.9731 38.2767 30.8684 38.7677 29.7228 39.095C28.5771 39.4223 27.3906 39.5859 26.1631 39.5859C24.8538 39.5859 23.6263 39.4223 22.4807 39.095C21.3351 38.7677 20.2713 38.2767 19.2893 37.6221C18.2255 37.0493 17.2844 36.3129 16.4661 35.4128C15.6478 34.5127 14.9522 33.4898 14.3794 32.3443C14.2976 32.0988 14.1135 31.9351 13.827 31.8533C13.5406 31.7715 13.2747 31.8124 13.0292 31.976C12.7837 32.0579 12.62 32.242 12.5382 32.5284C12.4564 32.8148 12.4564 33.0807 12.5382 33.3262C13.1929 34.5536 13.9907 35.6992 14.9318 36.7629C15.8728 37.8267 16.9162 38.7268 18.0618 39.4632C19.2893 40.1178 20.5781 40.6497 21.9283 41.0588C23.2785 41.468 24.6901 41.6725 26.1631 41.6725C27.5542 41.6725 28.9249 41.468 30.2751 41.0588C31.6253 40.6497 32.9142 40.1178 34.1416 39.4632C35.2873 38.7268 36.3306 37.8267 37.2717 36.7629C38.2127 35.6992 39.0106 34.5536 39.6652 33.3262C39.8289 33.0807 39.8698 32.8148 39.788 32.5284C39.7062 32.242 39.5016 32.0579 39.1743 31.976ZM20.885 20.6839C20.885 21.1749 20.8032 21.6045 20.6395 21.9727C20.4758 22.3409 20.2713 22.6478 20.0258 22.8933C19.6984 23.2206 19.3507 23.466 18.9824 23.6297C18.6142 23.7933 18.2255 23.8752 17.8163 23.8752C17.3253 23.8752 16.8957 23.7933 16.5275 23.6297C16.1592 23.466 15.8115 23.2206 15.4841 22.8933C15.2386 22.6478 15.0341 22.3409 14.8704 21.9727C14.7067 21.6045 14.6249 21.1749 14.6249 20.6839C14.6249 20.2748 14.7067 19.8861 14.8704 19.5179C15.0341 19.1497 15.2386 18.8019 15.4841 18.4746C15.8115 18.2291 16.1592 18.0246 16.5275 17.8609C16.8957 17.6972 17.3253 17.6154 17.8163 17.6154C18.2255 17.6154 18.6142 17.6972 18.9824 17.8609C19.3507 18.0246 19.6984 18.2291 20.0258 18.4746C20.2713 18.8019 20.4758 19.1497 20.6395 19.5179C20.8032 19.8861 20.885 20.2748 20.885 20.6839ZM37.7013 20.6839C37.7013 21.1749 37.6195 21.6045 37.4558 21.9727C37.2921 22.3409 37.0466 22.6478 36.7193 22.8933C36.4738 23.2206 36.1465 23.466 35.7374 23.6297C35.3282 23.7933 34.919 23.8752 34.5099 23.8752C34.1007 23.8752 33.6916 23.7933 33.2824 23.6297C32.8733 23.466 32.5459 23.2206 32.3004 22.8933C31.9731 22.6478 31.7276 22.3409 31.564 21.9727C31.4003 21.6045 31.3185 21.1749 31.3185 20.6839C31.3185 20.2748 31.4003 19.8861 31.564 19.5179C31.7276 19.1497 31.9731 18.8019 32.3004 18.4746C32.5459 18.2291 32.8733 18.0246 33.2824 17.8609C33.6916 17.6972 34.1007 17.6154 34.5099 17.6154C34.919 17.6154 35.3282 17.6972 35.7374 17.8609C36.1465 18.0246 36.4738 18.2291 36.7193 18.4746C37.0466 18.8019 37.2921 19.1497 37.4558 19.5179C37.6195 19.8861 37.7013 20.2748 37.7013 20.6839Z" fill="#906231" stroke="#906231"/>
</svg>
