<?xml version="1.0" encoding="UTF-8"?>
<svg id="Layer_2" data-name="Layer 2" xmlns="http://www.w3.org/2000/svg" viewBox="0 0 43.63 60">
  <defs>
    <style>
      .cls-1 {
        fill: #906231;
      }

      .cls-1, .cls-2 {
        stroke-width: 0px;
      }

      .cls-2 {
        fill: #456e67;
      }
    </style>
  </defs>
  <g id="Layer_1-2" data-name="Layer 1">
    <g>
      <path class="cls-2" d="M.55,15.25c-.18,0-.35-.09-.46-.25-.17-.25-.1-.6.15-.77l4.69-3.13V.83c0-.31.25-.55.55-.55h6.59c.3,0,.55.25.55.55v5.16S21.47.09,21.47.09c.18-.12.43-.12.61,0l21.3,14.15c.25.17.32.51.15.77-.17.25-.51.32-.76.15L21.78,1.22l-9.4,6.26c-.17.11-.39.12-.57.03-.18-.1-.29-.28-.29-.49V1.38h-5.48v10.03c0,.18-.09.36-.25.46L.86,15.16c-.09.06-.2.09-.31.09Z"/>
      <path class="cls-2" d="M36.41,60c-.31,0-.55-.25-.55-.55v-1.97h-.79c-.05,0-.1,0-.16,0h-7.29c-.05,0-.1,0-.16,0h-.78v1.97c0,.31-.25.55-.55.55s-.55-.25-.55-.55v-2.53c0-.31.25-.55.55-.55h.86v-6.16c0-.17.08-.32.2-.43l9.25-7.5c.96-.79,2.49-.71,3.39.18.5.5.76,1.16.74,1.86-.02.71-.33,1.36-.86,1.83l-4.36,3.85c-.23.2-.58.18-.78-.05-.2-.23-.18-.58.05-.78l4.36-3.85c.3-.27.48-.64.49-1.04.01-.39-.14-.76-.42-1.04-.5-.5-1.36-.56-1.91-.11l-9.05,7.33v5.89h6.34v-.88c0-.16.07-.31.19-.41l7.9-6.98v-12.59c0-.77-.62-1.39-1.38-1.39s-1.38.62-1.38,1.39v4.71c0,.31-.25.55-.55.55s-.55-.25-.55-.55v-4.71c0-1.38,1.11-2.49,2.48-2.49s2.48,1.12,2.48,2.49v12.84c0,.16-.07.31-.19.41l-7.9,6.98v.63h.87c.31,0,.55.25.55.55v2.53c0,.31-.25.55-.55.55Z"/>
      <path class="cls-2" d="M17.49,60c-.31,0-.55-.25-.55-.55v-1.97h-.78c-.05,0-.1,0-.16,0h-7.29c-.05,0-.1,0-.16,0h-.79v1.97c0,.31-.25.55-.55.55s-.55-.25-.55-.55v-2.53c0-.31.25-.55.55-.55h.87v-.63L.19,48.76C.07,48.66,0,48.51,0,48.35v-12.84C0,34.13,1.11,33.01,2.48,33.01s2.48,1.12,2.48,2.49v4.71c0,.31-.25.55-.55.55s-.55-.25-.55-.55v-4.71c0-.77-.62-1.39-1.38-1.39s-1.38.62-1.38,1.39v12.59l7.89,6.98c.12.11.19.26.19.41v.88h6.34v-5.89l-9.05-7.33c-.55-.45-1.41-.4-1.91.1-.28.28-.43.65-.41,1.04.01.4.19.77.49,1.04l4.36,3.85c.23.2.25.55.05.78-.2.23-.55.25-.78.05l-4.36-3.85c-.53-.47-.84-1.12-.86-1.83-.02-.7.24-1.36.74-1.86.89-.89,2.42-.98,3.39-.18l9.25,7.49c.13.1.2.26.2.43v6.16h.86c.31,0,.55.25.55.55v2.53c0,.31-.25.55-.55.55Z"/>
      <path class="cls-1" d="M36.08,25.59c-.29-.07-.51.07-.61.42-.22.67-.51,1.46-1.06,1.88-.14-2.48-.47-3.85-2.44-5.51-.13-.11-.14-.19-.06-.35.22-.42.41-.86.49-1.32.05-.55.33-.83.85-.98.5-.41.93,1.87.78,2.21-.13.69,1.2.78,1.53,2.53.08.33.47.43.73.23.62-.65-.55-2.25-1.1-2.71-.1-.09-.18-.16-.17-.32.02-.97-.27-1.84-.81-2.64-.07-.1-.13-.18-.06-.32.62-1.16.49-3.63-1.08-3.72-.31-.01-.42-.09-.36-.4.39-4.82-4.75-7.34-8.49-5.61-.62.26-.23,1.17.41.87,1-.41,2.04-.51,3.1-.35,2.06.18,4,2.14,3.91,4.18-.41-.53-2.1-3.12-2.79-2.25-1.93,2.02-4.85,2.37-6.94,4.25-.41-4.56,2.05-4.74,1.29-5.59-.77-.55-1.51,1.18-1.8,1.74-.39.92-.49,1.89-.46,2.87,0,.2-.03.27-.26.28-1.26,0-1.64,1.45-1.52,2.48.1,1.18.59,2.11,1.79,2.51.3.17.2.62.33.94-2.31-1.13-5.16-1-7.22.57-.57.41.03,1.21.58.77,1.28-.95,2.72-1.21,4.27-1.05,5.73.58,4.28,7.12,4.43,11.2.06,3.41-3.38,6.28-6.61,5.27-4.97-1.39-3.77-7.4-3.88-11.39,0-.99.16-1.92.67-2.78.38-.61-.51-1.11-.84-.46-.62,1.01-.83,2.2-.8,3.37,0,.1.05.22-.14.22-2.37-.02-2.01,5.33-.24,6.04.34.17.42.38.46.7.03.22-.01.31-.25.37-2.02.52-2.55,2.04-2.79,3.88-.55.65-2.41,3.33-1.54,3.95,1.53.27.22-3.22,5.45-5.19.28-.15.41.17.57.33,2.4,3,7.2,2.89,9.5-.15.29-.62,2.05.69,2.52.9.66.42,1.2.97,1.63,1.63.4.63.7,1.31.95,2.01.08.22.18.42.43.47,1.19.11.55-1.16.28-1.76-.16-.35-.16-.35.17-.55,1.51-.95,2.98-2.02,4.17-3.36.36.89.2,1.94.16,2.89-.06.7-.23,1.38-.42,2.05-.19.52.21.79.67.73,1.12-1.68,1.03-4.45.53-6.39-.11-.36-.11-.68-.01-1.05.4-1.49.43-3.02.45-4.55,0-.2.05-.33.2-.47.6-.47,2.54-3.03,1.44-3.5ZM32.9,15.95c1.12.2.63,2.6-.19,2.93.08-.4-.2-3.12.19-2.93ZM20.93,18.91c-.89-.54-1.11-2.11-.48-2.88.22-.16.57-.1.47.23,0,.87,0,1.74,0,2.65ZM11.89,31.77c-1.02-.92-1.03-2.88-.47-4.02.16-.26.52-.17.47.15,0,1.23,0,2.63,0,3.87ZM12.46,35.39c-.84.31-1.6.86-2.4,1.19.28-.99,1.18-1.98,2.22-1.93.07.12.44.71.19.74ZM33.35,26.96c0,.4.09.79.06,1.22-1.06-.39-2.24-.45-3.3-.04-.18.07-.2.02-.2-.14-.04-.5.23-1.61-.5-1.62-.29,0-.47.23-.47.61,0,1.72,0,3.44,0,5.17-.06.7-1.08,1.21-1.5,1.77-.09.08-.14.15-.3.08-1.14-.5-1.76-.52-3-.13.11-.36,0-.81.25-1.05,1.83-.82,1.88-3.2,1.51-4.9-.35-1.56-1.53-1.05-1.6-1.45.01-.59,0-1.18-.15-1.81,2.36,1.62,5.27.63,6.96-1.45.1-.13.18-.16.3-.02,1.17.98,1.93,2.2,1.93,3.77ZM24.31,27.87c-.05-.28.29-.37.44-.15.59,1.08.58,3.19-.44,4.04,0-1.33,0-2.61,0-3.89ZM21.92,18.94c-.15-1.21.12-2.32,1.2-2.98.32-.22.61-.52,1.05-.52.46-.07,1.06.56,1.36.06.16-.23.1-.46-.2-.75,1.35-.66,2.68-1.22,3.8-2.22.1-.09.16-.15.29-.02,1.89,1.65,2.67,4.09,2.28,6.55-.06,2.44-1.74,4.77-4.15,5.38-3.1.53-5.57-2.61-5.62-5.5ZM33.14,33.68c-.65,1.87-2.53,3.14-4.11,4.18.42-1.6-.81-1.78-.9-.87,0,.46-.06.9-.29,1.35-1-1.52-2.55-2.23-4.13-2.97,1-1.07,2.78-1.03,3.74.05.18.19.37.33.65.2.29-.14.39-.48.16-.73-.55-.43,1.85-1.65,1.67-2.39,0-.98,0-1.96,0-2.94,0-.2.06-.31.24-.39,1.03-.46,2.06-.47,3.08.01.57.09,0,3.91-.11,4.5ZM28.79,15.61c.74-.59,1.46.53,1.91-.15.33-.69-.78-1.02-1.31-1-1.71-.03-1.69,1.56-.6,1.14ZM29.24,16.13c-.51,0-.49.55-.47.93-.02.37-.05.93.46.93.74,0,.48-.96.49-1.44-.02-.27-.22-.43-.49-.42ZM29.15,21.61c.58-.49-.1-1.27-.65-.72-1.11.96-2.27.95-3.38-.01-.51-.52-1.21.22-.67.7,1.25,1.31,3.45,1.3,4.69.04ZM26.01,20.46c1.1.47,2.93-.21,2.32-1.64-.29-.72-.58-1.68-1.53-1.62-.52,0-.9.27-1.12.73-.47.85-.89,2.11.33,2.52ZM26.29,18.99c.48-1.34.73-.87,1.13.15.24.42-.3.46-.56.51-.51-.04-.86-.1-.57-.66ZM24.84,17.64c.04-.48.25-1.55-.5-1.51-.66.08-.37.95-.43,1.41-.02.53.85.62.93.09Z"/>
      <path class="cls-1" d="M21.32,31.42c-2.6-1.72-1.54-3.34-3.24-3.39-1.39-.03-1.18,1.76-2.04,2.42-.42.32-.85.63-1.21,1.01-1.48,2,1.67,2.83,3.22,2.69,1.44.1,4.91-.73,3.27-2.74ZM17.3,30.43c.22-.35.62-2.17,1.11-1.13.3.9,1.36,2.08-.34,2.06-.66,0-1.14-.21-.77-.92ZM20.55,32.63c-.55.76-6.24.85-4.85-.66.36-.29.57-.73.89-.13.77.71,2.67.65,3.21-.24.06-.11.11-.13.21-.04.26.29,1.15.69.54,1.07Z"/>
      <path class="cls-1" d="M18.08,36.89c-1.03-.03-1.92-.37-2.5-1.32-.13-.21-.13-.41.02-.6.21-.27.66-.2.81.1.68,1.19,2.86,1.04,3.39,0,.14-.28.45-.35.68-.2.25.15.3.45.12.73-.58.91-1.46,1.25-2.52,1.29Z"/>
      <path class="cls-1" d="M15.36,27.12c-.48-.05-1.52.22-1.53-.49,0-.31.2-.48.59-.48.55,0,1.1,0,1.64,0,.73.13.66-.92,1.34-.66.79.48-.24,1.59-.92,1.59-.37.04-.75,0-1.13,0,0,0,0,.02,0,.03Z"/>
      <path class="cls-1" d="M20.85,27.09c-.89.06-1.96.06-2.3-.95-.11-.28-.01-.54.23-.65.69-.28.6.8,1.37.65.55-.01,1.1,0,1.64,0,.36,0,.57.18.57.47-.01.71-1.04.45-1.52.49,0,0,0-.02,0-.02Z"/>
      <path class="cls-1" d="M20.84,28.87c-1.09.13-1.18-.83-.53-.96.35-.02.71-.02,1.06,0,.66.13.59,1.1-.54.96Z"/>
      <path class="cls-1" d="M15.38,27.91c.97-.19,1.21.7.55.92-.38.07-.77.07-1.16,0-.26-.04-.37-.24-.35-.5.02-.51.59-.43.96-.43,0,0,0,0,0,0Z"/>
      <path class="cls-1" d="M28.33,18.83c-.29-.72-.58-1.68-1.53-1.62-.52,0-.9.27-1.12.73-.47.85-.89,2.11.33,2.52,1.1.47,2.93-.21,2.32-1.64ZM27.2,19.58c-.49.11-1.32.1-.91-.59.13-.32.42-1.23.8-.62.06.37.74,1.07.11,1.21Z"/>
      <path class="cls-1" d="M29.15,21.61c-1.25,1.26-3.44,1.27-4.69-.04-.54-.47.15-1.21.67-.7,1.11.96,2.27.97,3.38.01.55-.54,1.23.23.65.72Z"/>
      <path class="cls-1" d="M30.71,15.46c-.45.67-1.18-.44-1.91.15-.6.37-1.09-.48-.49-.83.61-.52,2.75-.44,2.41.68Z"/>
      <path class="cls-1" d="M29.72,17.58c-.02.56-.95.53-.95-.04.04-.47-.23-1.38.47-1.41.73,0,.47.98.48,1.45Z"/>
      <path class="cls-1" d="M24.84,17.64c-.07.52-.95.44-.93-.09.05-.46-.24-1.34.43-1.41.75-.04.54,1.02.5,1.51Z"/>
    </g>
  </g>
</svg>